<svg data-v-0dd9719b="" version="1.0" xmlns="http://www.w3.org/2000/svg" xmlns:xlink="http://www.w3.org/1999/xlink" width="100%" height="100%" viewBox="0 0 340.000000 250.000000" preserveAspectRatio="xMidYMid meet" color-interpolation-filters="sRGB" style="margin: auto;"> <rect data-v-0dd9719b="" x="0" y="0" width="100%" height="100%" fill="#fff" fill-opacity="1" class="background"></rect> <rect data-v-0dd9719b="" x="0" y="0" width="100%" height="100%" fill="url(#watermark)" fill-opacity="1" class="watermarklayer"></rect> <g data-v-0dd9719b="" fill="#939393" class="icon-text-wrapper icon-svg-group iconsvg" transform="translate(81.76499950885773,81.25329971313477)"><g class="iconsvg-imagesvg" transform="translate(58.23500061035156,0)"><g><rect fill="#939393" fill-opacity="0" stroke-width="2" x="0" y="0" width="60" height="59.99340072592015" class="image-rect"></rect> <svg x="0" y="0" width="60" height="59.99340072592015" filtersec="colorsb4803021282" class="image-svg-svg primary" style="overflow: visible;"><svg version="1.1" id="图层_1" xmlns="http://www.w3.org/2000/svg" xmlns:xlink="http://www.w3.org/1999/xlink" x="0px" y="0px" viewBox="1.6700000762939453 0.2899971008300781 89.33000183105469 89.32000732421875" enable-background="new 0 0 93 90" xml:space="preserve">
<path fill="#214489" d="M13.14,56c1.2-0.48,2.48-0.58,3.69-0.95c1.27-0.39,2.55-0.74,3.8-1.17c1.21-0.41,2.42-0.87,3.6-1.37
	c1.22-0.52,2.43-1.08,3.61-1.68c1.14-0.58,2.27-1.2,3.37-1.86c1.1-0.66,2.18-1.36,3.23-2.09c1.09-0.76,2.15-1.56,3.18-2.4
	c1-0.81,1.97-1.65,2.9-2.52c0.97-0.91,1.91-1.85,2.81-2.82c0.88-0.94,1.72-1.91,2.53-2.9c0.83-1.03,1.63-2.09,2.39-3.18
	c0.73-1.05,1.43-2.13,2.09-3.23c0.66-1.1,1.28-2.22,1.86-3.37c0.6-1.18,1.16-2.39,1.68-3.61c0.5-1.18,0.95-2.38,1.36-3.6
	c0.42-1.26,0.8-2.53,1.14-3.81c0.33-1.23,0.61-2.47,0.93-3.81c0.22,0.13,0.38,0.18,0.49,0.29c3.44,3.44,6.88,6.89,10.32,10.33
	c0.03,0.03,0.05,0.07,0.07,0.11c-1.21,23.04-20.87,43.06-44.35,44.4C22.72,65.85,13.82,56.91,13.14,56z"></path>
<path fill="#939393" d="M46.65,89.61c-1.17-0.97-15.66-15.49-16.35-16.39c0.25-0.1,0.46-0.23,0.7-0.27
	c9.05-1.87,17.18-5.7,24.28-11.62c9.81-8.19,16.12-18.54,18.89-31.03c0.1-0.46,0.22-0.92,0.33-1.36c0.16,0.02,0.27-0.01,0.32,0.04
	C80.21,34.33,85.6,39.7,91,45.07c-0.19,0.55-0.6,0.83-0.93,1.16c-7,7.01-14.01,14.02-21.02,21.02c-7.1,7.1-14.21,14.2-21.31,21.3
	C47.39,88.89,47.04,89.23,46.65,89.61z"></path>
<path fill="#939393" d="M1.67,44.67c0.7-0.92,43.48-43.72,44.36-44.38c0.08,0.03,0.18,0.04,0.23,0.1c1.56,1.57,3.11,3.14,4.78,4.82
	c-0.02,0.44-0.02,1.01-0.08,1.57c-0.95,8-3.6,15.39-8.23,22.01C35.35,39.32,25.38,46.02,12.8,48.76c-1.77,0.38-3.58,0.56-5.37,0.84
	c-0.56,0.09-1-0.05-1.42-0.48c-1.32-1.37-2.68-2.7-4.02-4.04C1.86,44.95,1.77,44.8,1.67,44.67z"></path>
</svg></svg> <!----></g></g> <g transform="translate(0,66.99340057373047)"><g data-gra="path-name" fill-rule="" class="tp-name iconsvg-namesvg"><g transform="scale(1)"><g><path d="M10.5 2.94L10.5 2.94Q8.74 2.94 7.18 2.16 5.62 1.38 4.46 0.01 3.3-1.35 2.62-3.16 1.94-4.97 1.94-7.06L1.94-7.06Q1.94-9.12 2.62-10.94 3.3-12.77 4.46-14.12 5.62-15.48 7.18-16.27 8.74-17.06 10.5-17.06L10.5-17.06Q12.53-17.06 14.31-16.03 16.09-15 17.33-13.09L17.33-13.09 15.39-11.83Q14.5-13.24 13.22-13.99 11.95-14.74 10.5-14.74L10.5-14.74Q9.21-14.74 8.08-14.14 6.94-13.53 6.09-12.49 5.24-11.44 4.74-10.05 4.24-8.65 4.24-7.06L4.24-7.06Q4.24-5.47 4.74-4.07 5.24-2.68 6.09-1.62 6.94-0.56 8.08 0.04 9.21 0.65 10.5 0.65L10.5 0.65Q11.95 0.65 13.22-0.12 14.5-0.88 15.39-2.29L15.39-2.29 17.33-1.03Q16.09 0.88 14.31 1.91 12.53 2.94 10.5 2.94ZM24.18 3.3L24.18 3.3 21.89 3.3 21.89-14.48 21.01-14.48 21.01-16.8 24.18-16.8 24.18 3.3ZM35.86 3.3L35.86 3.3 33.57 3.3 33.57-16.8 35.86-16.8 35.86 3.3ZM34.72-6L34.72-6 22.1-6 22.1-8.33 34.72-8.33 34.72-6ZM54.72 3.38L54.72 3.38 47.6-14.56 45.37-14.56 45.37-16.89 49.16-16.89 56.87 2.53 54.72 3.38ZM41.1 3.44L41.1 3.44 38.95 2.59 46.4-16.09 48.55-15.24 41.1 3.44ZM53.34-2.68L53.34-2.68 42.93-2.68 42.93-5 53.34-5 53.34-2.68ZM67.82 3.03L67.82 3.03Q66.14 3.03 64.65 2.25 63.17 1.47 62.02-0.03L62.02-0.03Q60.93-1.44 60.36-3.22 59.78-5 59.78-6.97L59.78-6.97Q59.78-8.94 60.36-10.74 60.93-12.53 62.02-13.95L62.02-13.95Q63.17-15.45 64.65-16.23 66.14-17.01 67.82-17.01L67.82-17.01Q69.46-17.01 70.95-16.23 72.44-15.45 73.58-13.95L73.58-13.95Q74.67-12.53 75.25-10.74 75.82-8.94 75.82-6.97L75.82-6.97Q75.82-5 75.25-3.22 74.67-1.44 73.58-0.03L73.58-0.03Q72.44 1.47 70.95 2.25 69.46 3.03 67.82 3.03ZM67.82-14.68L67.82-14.68Q66.64-14.68 65.59-14.08 64.55-13.47 63.77-12.43 62.99-11.39 62.54-9.97 62.08-8.56 62.08-6.97L62.08-6.97Q62.08-5.38 62.54-3.99 62.99-2.59 63.77-1.54 64.55-0.5 65.59 0.1 66.64 0.71 67.82 0.71L67.82 0.71Q68.99 0.71 70.04 0.1 71.08-0.5 71.85-1.54 72.61-2.59 73.07-3.99 73.52-5.38 73.52-6.97L73.52-6.97Q73.52-8.56 73.07-9.97 72.61-11.39 71.85-12.43 71.08-13.47 70.04-14.08 68.99-14.68 67.82-14.68ZM96.74 2.94L96.74 2.94Q94.97 2.94 93.41 2.16 91.85 1.38 90.69 0.01 89.53-1.35 88.85-3.16 88.18-4.97 88.18-7.06L88.18-7.06Q88.18-9.12 88.85-10.94 89.53-12.77 90.69-14.12 91.85-15.48 93.41-16.27 94.97-17.06 96.74-17.06L96.74-17.06Q98.8-17.06 100.58-16.03 102.36-15 103.59-13.09L103.59-13.09 101.65-11.83Q100.74-13.24 99.47-13.99 98.21-14.74 96.74-14.74L96.74-14.74Q95.44-14.74 94.31-14.14 93.18-13.53 92.32-12.49 91.47-11.44 90.99-10.05 90.5-8.65 90.5-7.06L90.5-7.06Q90.5-5.47 90.99-4.07 91.47-2.68 92.32-1.62 93.18-0.56 94.31 0.04 95.44 0.65 96.74 0.65L96.74 0.65Q98.12 0.65 99.34-0.04 100.56-0.74 101.47-2L101.47-2 101.47-5.91 95-5.91 95-8.21 103.77-8.21 103.77-1.32 103.59-1.03Q102.36 0.88 100.58 1.91 98.8 2.94 96.74 2.94ZM110.27-15.68L110.27 3.27 107.95 3.27 107.95-15.68 110.27-15.68ZM120.92 1.97L119.01 3.27 112.42-6.44 112.42-8 114.95-8Q115.74-8 116.45-8.27 117.16-8.53 117.67-8.99 118.19-9.44 118.49-10.05 118.8-10.65 118.8-11.36L118.8-11.36Q118.8-12.03 118.49-12.64 118.19-13.24 117.67-13.7 117.16-14.15 116.45-14.42 115.74-14.68 114.95-14.68L114.95-14.68 107.18-14.68 107.18-16.98 114.95-16.98Q116.21-16.98 117.33-16.53 118.45-16.09 119.29-15.33 120.13-14.56 120.61-13.53 121.1-12.5 121.1-11.36L121.1-11.36Q121.1-10.27 120.69-9.31 120.27-8.36 119.54-7.61 118.8-6.86 117.83-6.36 116.86-5.85 115.71-5.74L115.71-5.74 120.92 1.97ZM139.37 3.38L139.37 3.38 125.54 3.38 125.54-15.56 127.84-15.56 127.84 1.09 139.37 1.09 139.37 3.38ZM137.63-5.59L137.63-5.59 125.75-5.59 125.75-7.91 137.63-7.91 137.63-5.59ZM139.16-14.56L139.16-14.56 124.78-14.56 124.78-16.89 139.16-16.89 139.16-14.56ZM158.11 3.38L158.11 3.38 150.99-14.56 148.75-14.56 148.75-16.89 152.55-16.89 160.26 2.53 158.11 3.38ZM144.49 3.44L144.49 3.44 142.34 2.59 149.78-16.09 151.93-15.24 144.49 3.44ZM156.73-2.68L156.73-2.68 146.31-2.68 146.31-5 156.73-5 156.73-2.68ZM171.94 3.12L171.94 3.12 169.61 3.12 169.61-15.83 171.94-15.83 171.94 3.12ZM178.41-14.68L178.41-14.68 163.14-14.68 163.14-16.98 178.41-16.98 178.41-14.68Z" transform="translate(-1.940000057220459, 17.059999465942383)"></path></g> <!----> <!----> <!----> <!----> <!----> <!----> <!----></g></g> <!----></g></g><defs v-gra="od"></defs></svg>